<svg width="49" height="51" viewBox="0 0 49 51" fill="none" xmlns="http://www.w3.org/2000/svg">
<path d="M16.0949 30.7914C16.0949 31.0194 16.0169 31.2174 15.8609 31.3854C15.7169 31.5414 15.5309 31.6194 15.3029 31.6194H14.7989C14.5709 31.6194 14.3729 31.5414 14.2049 31.3854C14.0489 31.2174 13.9709 31.0194 13.9709 30.7914V22.6014C13.9709 22.5534 13.9469 22.5234 13.8989 22.5114C13.8629 22.4874 13.8329 22.4874 13.8089 22.5114L13.5389 22.7814C13.3949 22.9494 13.2029 23.0334 12.9629 23.0334C12.8429 23.0334 12.7349 23.0094 12.6389 22.9614C12.4829 22.9014 12.3629 22.7994 12.2789 22.6554C12.1949 22.5114 12.1529 22.3614 12.1529 22.2054V21.5034C12.1529 21.2754 12.2309 21.0774 12.3869 20.9094L13.6109 19.7034C13.6949 19.6314 13.7849 19.5714 13.8809 19.5234C13.9769 19.4754 14.0849 19.4514 14.2049 19.4514H15.3029C15.5309 19.4514 15.7169 19.5294 15.8609 19.6854C16.0169 19.8414 16.0949 20.0394 16.0949 20.2794V30.7914ZM27.0435 30.7914C27.0435 31.0194 26.9595 31.2174 26.7915 31.3854C26.6355 31.5414 26.4435 31.6194 26.2155 31.6194H21.2115C20.7795 31.6194 20.3775 31.5114 20.0055 31.2954C19.6455 31.0794 19.3575 30.7914 19.1415 30.4314C18.9255 30.0714 18.8175 29.6754 18.8175 29.2434V27.6054C18.8175 27.1134 18.9615 26.6574 19.2495 26.2374C19.5375 25.8174 19.9215 25.5234 20.4015 25.3554L24.7215 23.7354C24.8415 23.6994 24.9015 23.6094 24.9015 23.4654V21.8454C24.9015 21.6774 24.8235 21.5934 24.6675 21.5934H21.2115C21.1515 21.5934 21.0915 21.6174 21.0315 21.6654C20.9835 21.7134 20.9595 21.7734 20.9595 21.8454V22.3314C20.9595 22.5594 20.8755 22.7514 20.7075 22.9074C20.5515 23.0634 20.3595 23.1414 20.1315 23.1414H19.6455C19.4175 23.1414 19.2195 23.0634 19.0515 22.9074C18.8955 22.7514 18.8175 22.5594 18.8175 22.3314V21.8454C18.8175 21.4014 18.9255 20.9994 19.1415 20.6394C19.3575 20.2794 19.6455 19.9914 20.0055 19.7754C20.3775 19.5594 20.7795 19.4514 21.2115 19.4514H24.6675C25.0995 19.4514 25.4955 19.5594 25.8555 19.7754C26.2155 19.9914 26.5035 20.2794 26.7195 20.6394C26.9355 20.9994 27.0435 21.4014 27.0435 21.8454V23.4654C27.0435 23.9694 26.8995 24.4314 26.6115 24.8514C26.3235 25.2714 25.9455 25.5654 25.4775 25.7334L21.1395 27.3534C21.0195 27.3894 20.9595 27.4734 20.9595 27.6054V29.2434C20.9595 29.3034 20.9835 29.3634 21.0315 29.4234C21.0915 29.4714 21.1515 29.4954 21.2115 29.4954H26.2155C26.4435 29.4954 26.6355 29.5734 26.7915 29.7294C26.9595 29.8854 27.0435 30.0834 27.0435 30.3234V30.7914ZM36.7466 29.2434C36.7466 29.6754 36.6386 30.0714 36.4226 30.4314C36.2066 30.7914 35.9186 31.0794 35.5586 31.2954C35.1986 31.5114 34.8026 31.6194 34.3706 31.6194H30.9146C30.4826 31.6194 30.0806 31.5114 29.7086 31.2954C29.3486 31.0794 29.0606 30.7914 28.8446 30.4314C28.6286 30.0714 28.5206 29.6754 28.5206 29.2434V28.7034C28.5206 28.4754 28.5986 28.2834 28.7546 28.1274C28.9226 27.9594 29.1206 27.8754 29.3486 27.8754H29.8526C30.0686 27.8754 30.2546 27.9594 30.4106 28.1274C30.5786 28.2834 30.6626 28.4754 30.6626 28.7034V29.2434C30.6626 29.3034 30.6866 29.3634 30.7346 29.4234C30.7946 29.4714 30.8546 29.4954 30.9146 29.4954H34.3706C34.4306 29.4954 34.4846 29.4714 34.5326 29.4234C34.5806 29.3634 34.6046 29.3034 34.6046 29.2434V26.8494C34.6046 26.6934 34.5266 26.6154 34.3706 26.6154H30.9146C30.6866 26.6154 30.4886 26.5374 30.3206 26.3814C30.1646 26.2134 30.0866 26.0154 30.0866 25.7874V25.2834C30.0866 25.0554 30.1646 24.8634 30.3206 24.7074C30.4886 24.5514 30.6866 24.4734 30.9146 24.4734H34.3706C34.4306 24.4734 34.4846 24.4494 34.5326 24.4014C34.5806 24.3414 34.6046 24.2814 34.6046 24.2214V21.8454C34.6046 21.6774 34.5266 21.5934 34.3706 21.5934H30.9146C30.8546 21.5934 30.7946 21.6174 30.7346 21.6654C30.6866 21.7134 30.6626 21.7734 30.6626 21.8454V22.3314C30.6626 22.5594 30.5786 22.7514 30.4106 22.9074C30.2546 23.0634 30.0686 23.1414 29.8526 23.1414H29.3486C29.1206 23.1414 28.9226 23.0634 28.7546 22.9074C28.5986 22.7514 28.5206 22.5594 28.5206 22.3314V21.8454C28.5206 21.4014 28.6286 20.9994 28.8446 20.6394C29.0606 20.2794 29.3486 19.9914 29.7086 19.7754C30.0806 19.5594 30.4826 19.4514 30.9146 19.4514H34.3706C34.8026 19.4514 35.1986 19.5594 35.5586 19.7754C35.9186 19.9914 36.2066 20.2794 36.4226 20.6394C36.6386 20.9994 36.7466 21.4014 36.7466 21.8454V24.2214C36.7466 24.4134 36.7226 24.6054 36.6746 24.7974C36.6266 24.9894 36.5606 25.1754 36.4766 25.3554C36.3806 25.4754 36.3806 25.6014 36.4766 25.7334C36.5606 25.9014 36.6266 26.0814 36.6746 26.2734C36.7226 26.4654 36.7466 26.6574 36.7466 26.8494V29.2434Z" fill="#6640B4"/>
<path fill-rule="evenodd" clip-rule="evenodd" d="M43.4359 43.6328L39.8515 40.1451C36.1535 43.767 31.0899 46 25.5048 46C14.1803 46 5 36.8197 5 25.4952C5 14.4074 13.8006 5.37509 24.7976 5.00235V0C11.0387 0.374589 0 11.6458 0 25.4952C0 39.5811 11.4189 51 25.5048 51C32.4952 51 38.8288 48.1877 43.4359 43.6328Z" fill="#6640B4"/>
<ellipse cx="42.508" cy="42.5004" rx="6.3762" ry="6.3762" fill="#6640B4"/>
</svg>
